<?xml version="1.0" encoding="utf-8"?>
<!-- Generator: Adobe Illustrator 23.0.3, SVG Export Plug-In . SVG Version: 6.00 Build 0)  -->
<svg version="1.1" xmlns="http://www.w3.org/2000/svg" xmlns:xlink="http://www.w3.org/1999/xlink" x="0px" y="0px"
	 viewBox="0 0 750 500" style="enable-background:new 0 0 750 500;" xml:space="preserve">
<style type="text/css">
	.st0{fill:#8A4CA8;}
	.st1{fill:url(#SVGID_1_);}
	.st2{fill:#F09E78;}
	.st3{fill:url(#SVGID_2_);}
	.st4{fill:url(#SVGID_3_);}
	.st5{fill:url(#SVGID_4_);}
	.st6{fill:#FFFFFF;}
	.st7{fill:url(#SVGID_5_);}
	.st8{fill:#3B1510;}
	.st9{fill:#C4B2A0;}
	.st10{fill:#17222B;}
	.st11{fill:url(#SVGID_6_);}
	.st12{fill:#E08464;}
	.st13{fill:#E6C8BA;}
	.st14{fill:url(#SVGID_7_);}
	.st15{fill:#E5EBF2;}
	.st16{fill:url(#SVGID_8_);}
	.st17{fill:#B3BDC9;}
	.st18{fill:url(#SVGID_9_);}
	.st19{fill:url(#SVGID_10_);}
	.st20{fill:url(#SVGID_11_);}
	.st21{fill:#73102A;}
	.st22{fill:#EB5050;}
	.st23{opacity:0.1;}
</style>
<g id="BACKGROUND">
</g>
<g id="OBJECTS">
	<circle class="st0" cx="373.23" cy="269.01" r="203.83"/>
	<g>
		<g>
			<linearGradient id="SVGID_1_" gradientUnits="userSpaceOnUse" x1="462.8713" y1="192.2889" x2="421.6242" y2="197.7979">
				<stop  offset="0" style="stop-color:#FAD4AF"/>
				<stop  offset="1" style="stop-color:#F09E78"/>
			</linearGradient>
			<path class="st1" d="M446.06,178.26c2.39-7.02,12.2-13.56,16.3-11.06c4.1,2.5,6.38,14.75,4.67,22.48
				c-1.71,7.73-8.55,21.65-10.94,24.39c-2.39,2.73-11.29,8.32-16.76,6.78L446.06,178.26z"/>
			<path class="st2" d="M448.45,173.97c-1.04,1.36-1.89,2.81-2.39,4.29l-6.73,42.58c3.53,1,8.48-0.98,12.2-3.24L448.45,173.97z"/>
			<linearGradient id="SVGID_2_" gradientUnits="userSpaceOnUse" x1="277.0623" y1="194.4007" x2="326.9312" y2="193.14">
				<stop  offset="0" style="stop-color:#FAD4AF"/>
				<stop  offset="1" style="stop-color:#F09E78"/>
			</linearGradient>
			<path class="st3" d="M302.22,178.26c-2.39-7.02-12.2-13.56-16.3-11.06c-4.1,2.5-6.38,14.75-4.67,22.48
				c1.71,7.73,8.55,21.65,10.94,24.39c2.39,2.73,11.29,8.32,16.76,6.78L302.22,178.26z"/>
			<path class="st2" d="M299.82,173.97c1.04,1.36,1.89,2.81,2.39,4.29l6.72,42.58c-3.53,1-8.48-0.98-12.2-3.24L299.82,173.97z"/>
		</g>
		<linearGradient id="SVGID_3_" gradientUnits="userSpaceOnUse" x1="374.1359" y1="327.6262" x2="374.1359" y2="240.3317">
			<stop  offset="0" style="stop-color:#FAD4AF"/>
			<stop  offset="1" style="stop-color:#F09E78"/>
		</linearGradient>
		<path class="st4" d="M322.08,198.72c0,0,4.11,49.96,5.02,73.99c0.91,24.03,2.74,39.96-24.4,60.9
			c-27.14,20.94-42.19,30.69-50.63,37.59c-8.44,6.9-11.86,10.94-15.28,18.08c-3.42,7.14-12.28,27.02-11.17,28.55
			c6.39,8.8,70.58,49.01,148.51,49.01c77.93,0,142.13-40.21,148.51-49.01c1.11-1.53-7.76-21.41-11.18-28.55
			c-3.42-7.14-6.84-11.18-15.28-18.08c-8.44-6.9-23.49-16.65-50.62-37.59c-27.14-20.94-25.31-36.87-24.4-60.9
			c0.91-24.03,5.02-73.99,5.02-73.99H322.08z"/>
		<path class="st2" d="M403.4,292.21c5.48-6.35,11.78-13.04,17.88-22.3c1.09-24.89,4.9-71.19,4.9-71.19h-104.1
			c0,0,3.81,46.29,4.9,71.19c6.1,9.26,12.4,15.95,17.89,22.3c12.71,14.71,21.59,19.4,29.27,19.4
			C381.81,311.61,390.69,306.92,403.4,292.21z"/>
		<linearGradient id="SVGID_4_" gradientUnits="userSpaceOnUse" x1="374.1363" y1="193.5707" x2="374.1363" y2="75.6128">
			<stop  offset="0" style="stop-color:#FAD4AF"/>
			<stop  offset="1" style="stop-color:#F09E78"/>
		</linearGradient>
		<path class="st5" d="M374.13,44.32c-69.2,0-79.87,49.01-79.87,77.08c0,28.07,2.4,54.72,12,92.78
			c8.82,34.99,25.9,47.58,38.61,58.76c12.71,11.18,21.59,14.75,29.27,14.75c7.68,0,16.55-3.57,29.27-14.75
			c12.71-11.18,29.8-23.77,38.61-58.76c9.59-38.07,11.99-64.71,11.99-92.78C454.01,93.33,443.34,44.32,374.13,44.32z"/>
		<g>
			<g>
				<path class="st6" d="M412.02,166.37c-6.44,1.43-13.68,6.84-17.39,13.32c2.62,4.64,8.84,9.33,20.35,8.5
					c11.51-0.83,16.97-15.44,17.33-18.61C429.4,167.79,421.29,165.71,412.02,166.37z"/>
				<linearGradient id="SVGID_5_" gradientUnits="userSpaceOnUse" x1="412.7563" y1="182.0097" x2="412.7563" y2="165.3794">
					<stop  offset="0" style="stop-color:#7D4C36"/>
					<stop  offset="1" style="stop-color:#542624"/>
				</linearGradient>
				<path class="st7" d="M412.02,166.37c-3.28,0.73-6.77,2.5-9.9,4.91c-0.37,1.63-0.44,3.36-0.08,5.11
					c1.29,6.22,7.13,10.16,13.04,8.83c5.92-1.34,9.66-7.46,8.37-13.67c-0.4-1.92-1.27-3.59-2.41-4.99
					C418.28,166.25,415.23,166.14,412.02,166.37z"/>
				<path class="st8" d="M417.4,172.91c0.56,2.7-1.06,5.36-3.63,5.94c-2.57,0.58-5.1-1.13-5.67-3.83c-0.56-2.7,1.06-5.35,3.63-5.94
					C414.3,168.5,416.84,170.22,417.4,172.91z"/>
				<path class="st9" d="M412.02,166.37c-3.28,0.73-6.77,2.5-9.9,4.91c-0.37,1.63-0.44,3.36-0.08,5.11
					c0.03,0.14,0.09,0.27,0.13,0.41c3.58-2.14,11.51-6.04,21.11-5.89c-0.45-1.65-1.23-3.11-2.23-4.35
					C418.28,166.25,415.23,166.14,412.02,166.37z"/>
				<path class="st10" d="M392.63,180.91c0,0,9.58-11.69,20.47-13.23c14.2-0.36,18.41,2.97,18.41,2.97c0,0.71-0.34,2.73-0.34,2.73
					s3.59-3.68,5.02-6.09c-7.87-2.17-15.22-3.07-24.86-2.12c-9.63,0.95-18.42,6.07-18.42,6.07s5.94-2.29,11.03-3.09
					C400.66,170.2,394.38,175.55,392.63,180.91z"/>
				<path class="st2" d="M401.23,185.87c2.27,0.99,17.23,5.33,26.03-5.3C425.2,184.92,415.65,193.46,401.23,185.87z"/>
				<path class="st6" d="M421.39,172.47c0,1.36-1.29,2.46-2.88,2.46c-1.59,0-2.88-1.1-2.88-2.46c0-1.36,1.29-2.46,2.88-2.46
					C420.11,170.01,421.39,171.11,421.39,172.47z"/>
				<path class="st2" d="M400.02,164.4c0,0,8.98-3.21,21.8-2.32c-6.67-1.96-15.74-0.83-16.53-0.77
					C404.49,161.37,401.59,162.8,400.02,164.4z"/>
				<path class="st10" d="M389.21,158.16c0,0,24.57-8.09,31.76-8.69c7.18-0.59,15.22,0,15.22,0s-7.87-2.74-16.02-2.91
					c-8.15-0.18-26.51,3.03-27.93,3.45C390.81,150.43,388.98,154.11,389.21,158.16z"/>
			</g>
			<g>
				<path class="st6" d="M336.25,166.37c6.44,1.43,13.68,6.84,17.39,13.32c-2.62,4.64-8.84,9.33-20.35,8.5
					c-11.51-0.83-16.98-15.44-17.33-18.61C318.87,167.79,326.98,165.71,336.25,166.37z"/>
				<linearGradient id="SVGID_6_" gradientUnits="userSpaceOnUse" x1="335.5155" y1="182.0097" x2="335.5155" y2="165.3794">
					<stop  offset="0" style="stop-color:#7D4C36"/>
					<stop  offset="1" style="stop-color:#542624"/>
				</linearGradient>
				<path class="st11" d="M336.25,166.37c3.28,0.73,6.77,2.5,9.9,4.91c0.37,1.63,0.44,3.36,0.08,5.11
					c-1.29,6.22-7.13,10.16-13.04,8.83c-5.92-1.34-9.66-7.46-8.37-13.67c0.4-1.92,1.27-3.59,2.41-4.99
					C329.99,166.25,333.04,166.14,336.25,166.37z"/>
				<path class="st8" d="M330.88,172.91c-0.56,2.7,1.06,5.36,3.63,5.94c2.57,0.58,5.1-1.13,5.67-3.83c0.56-2.7-1.06-5.35-3.63-5.94
					C333.97,168.5,331.44,170.22,330.88,172.91z"/>
				<path class="st9" d="M336.25,166.37c3.28,0.73,6.77,2.5,9.9,4.91c0.37,1.63,0.44,3.36,0.08,5.11c-0.03,0.14-0.09,0.27-0.13,0.41
					c-3.58-2.14-11.5-6.04-21.11-5.89c0.45-1.65,1.23-3.11,2.23-4.35C329.99,166.25,333.04,166.14,336.25,166.37z"/>
				<path class="st10" d="M355.64,180.91c0,0-9.58-11.69-20.47-13.23c-14.2-0.36-18.41,2.97-18.41,2.97c0,0.71,0.34,2.73,0.34,2.73
					s-3.6-3.68-5.02-6.09c7.87-2.17,15.23-3.07,24.86-2.12c9.63,0.95,18.41,6.07,18.41,6.07s-5.94-2.29-11.03-3.09
					C347.61,170.2,353.89,175.55,355.64,180.91z"/>
				<path class="st2" d="M347.04,185.87c-2.27,0.99-17.23,5.33-26.03-5.3C323.07,184.92,332.62,193.46,347.04,185.87z"/>
				<path class="st6" d="M338.42,175.31c0,1.36,1.29,2.46,2.88,2.46c1.59,0,2.88-1.1,2.88-2.46c0-1.36-1.29-2.46-2.88-2.46
					C339.71,172.85,338.42,173.95,338.42,175.31z"/>
				<path class="st2" d="M348.25,164.4c0,0-8.98-3.21-21.8-2.32c6.67-1.96,15.74-0.83,16.53-0.77
					C343.78,161.37,346.69,162.8,348.25,164.4z"/>
				<path class="st10" d="M359.06,158.16c0,0-24.57-8.09-31.76-8.69c-7.18-0.59-15.22,0-15.22,0s7.87-2.74,16.02-2.91
					c8.15-0.18,26.51,3.03,27.93,3.45C357.46,150.43,359.29,154.11,359.06,158.16z"/>
			</g>
		</g>
		<path class="st12" d="M374.14,228.04c4.42,0,7.95-4.16,8.26-6.24c-1.37,0.61-5.33,2.38-8.26,2.38c-2.93,0-6.9-1.77-8.26-2.38
			C366.18,223.88,369.72,228.04,374.14,228.04z"/>
		<path class="st13" d="M374.13,44.32c-69.2,0-79.87,49.01-79.87,77.08c0,19.82,1.2,38.94,5.28,61.87l7.71-25.11l10.6-7.22
			c-2.2,1.73-5.47,5.02-6.71,9.99c8.66-2.93,37.05-14.95,44.05-34.24c0,0,1.72,26.12,0.21,41.67c11.14-6.41,25.51-16.03,32.84-33.2
			c0,0,1.6,17.05,2.33,26.78c11.53-9.57,19.77-31.25,17.42-55.64c6.09,9.16,15.08,37.17,16.53,54.52
			c7.93-9.09,7.49-22.46,7.49-22.46l4.12,15.62l4.13,5.09l4.45,26.35c0,0,1.94-2.06,4.69-5.94c3.56-21.26,4.63-39.35,4.63-58.07
			C454.01,93.33,443.34,44.32,374.13,44.32z"/>
		<linearGradient id="SVGID_7_" gradientUnits="userSpaceOnUse" x1="372.3155" y1="34.0513" x2="372.3155" y2="162.6102">
			<stop  offset="0" style="stop-color:#1C242B"/>
			<stop  offset="1" style="stop-color:#343D45"/>
		</linearGradient>
		<path class="st14" d="M473.28,112.84c-1.48-4.28-9.24-30.81-13.46-37.36c-4.22-6.54-21.21-19.51-31.47-25.45
			c0,0,19.04-7.97,25.66-10.23c-18.81-7.61-28.68,0.24-33.13,5.59c0,0-14.88-14.81-20.87-16.95c-5.99-2.14-32.84-3.57-77.48,12.49
			c-19.15,9.99-33.63,38.13-38.19,44.31c-4.56,6.19-13,10.47-13,10.47s7.3,5.47,13.45,5.47c0,0-3.19,9.04-2.28,39.02
			c5.02,28.31,17.02,43.08,17.02,43.08l5.78-26.07l11.29-16.18c0,0-3.53,12.13-5.47,19.91c8.66-2.93,33.86-20.74,42.5-39.3
			c0,0-0.54,26.17-3.39,41.52c11.65-5.34,26.8-13.56,35.57-29.98c0,0,0.11,17.13,0,26.89c12.32-8.45,24.51-29.38,22.16-53.77
			c6.09,9.16,16.95,36.28,19.27,53.53c7.46-9.52,6.34-22.84,6.34-22.84l4.9,15.37l4.38,4.85l5.78,26.07c0,0,12-14.77,17.02-43.08
			c0.45-14.69-0.09-24.33-0.76-30.37C467.32,111.26,470.43,112.72,473.28,112.84z"/>
		<g>
			<path class="st15" d="M513.92,388.01c-3.63-7.57-7.22-11.84-16.03-19.05c-3.73-3.05-8.58-6.54-15.29-11.37
				c-8.47-6.09-20.06-14.44-35.39-26.27c-2.67-2.06-4.99-4.06-7.11-6.03c-16.32,18.52-38.42,36.99-65.95,45.2
				c-27.54-8.2-49.63-26.68-65.95-45.2c-2.12,1.97-4.44,3.97-7.11,6.03c-15.31,11.81-26.89,20.15-35.35,26.24
				c-6.74,4.85-11.6,8.35-15.33,11.4c-8.81,7.21-12.41,11.48-16.04,19.05c-13.44,28.04-11.67,30.5-10.91,31.55
				c7.2,9.92,73.14,50.14,150.7,50.14c77.57,0,143.5-40.22,150.69-50.14C525.59,418.51,527.36,416.06,513.92,388.01z"/>
			<g>
				<linearGradient id="SVGID_8_" gradientUnits="userSpaceOnUse" x1="285.9398" y1="457.4849" x2="285.9398" y2="325.8525">
					<stop  offset="0" style="stop-color:#54749C"/>
					<stop  offset="1" style="stop-color:#2B5385"/>
				</linearGradient>
				<path class="st16" d="M265.72,357.55c-6.74,4.85-11.6,8.35-15.33,11.4c-8.81,7.21-12.41,11.48-16.04,19.05
					c-13.44,28.04-11.67,30.5-10.91,31.55c6.41,8.83,59.32,41.61,125.52,48.74l-11.25-52.6l-29.52-90.4
					c-2.12,1.97-4.44,3.97-7.11,6.03C285.77,343.12,274.18,351.46,265.72,357.55z"/>
				<path class="st17" d="M286.53,416.64c1.48-0.81,23.92-2.67,27.46-1.9c3.54,0.77,25.61,9.82,25.61,9.82l-1.9-8.87l-29.52-90.4
					c-0.14,0.13-0.29,0.25-0.43,0.39c-5.62,20.65-22.97,83.6-23.73,87.24C283.14,417.18,285.06,417.45,286.53,416.64z"/>
				<linearGradient id="SVGID_9_" gradientUnits="userSpaceOnUse" x1="307.2565" y1="400.8985" x2="307.2565" y2="308.3777">
					<stop  offset="0" style="stop-color:#799CC7"/>
					<stop  offset="1" style="stop-color:#567CAB"/>
				</linearGradient>
				<path class="st18" d="M327.07,295.88c0,0,0.07,12.6-8.46,22.06l19.21,95.85l1.79,10.77c0,0-22.71-21.24-26.81-22.67
					c-4.1-1.42-11.8-0.89-19.16,0.89c-7.35,1.78-13.85,3.48-15.56,4.01c-1.71,0.54-3.93-0.09-2.91-4.19
					c1.03-4.1,28.56-85.65,29.5-88.94c0.94-3.3,2.05-6.16,5.22-8.03C313.05,303.76,327.07,295.88,327.07,295.88z"/>
				<path class="st17" d="M326.76,299.58c-12.58,4.75-9.04,11.8-8.15,18.36C324.27,311.66,326.14,304.02,326.76,299.58z"/>
			</g>
			<g>
				<linearGradient id="SVGID_10_" gradientUnits="userSpaceOnUse" x1="462.3275" y1="457.4849" x2="462.3275" y2="325.8525">
					<stop  offset="0" style="stop-color:#54749C"/>
					<stop  offset="1" style="stop-color:#2B5385"/>
				</linearGradient>
				<path class="st19" d="M482.55,357.55c6.74,4.85,11.6,8.35,15.33,11.4c8.81,7.21,12.41,11.48,16.04,19.05
					c13.44,28.04,11.67,30.5,10.91,31.55c-6.4,8.83-59.31,41.61-125.52,48.74l11.25-52.6l29.52-90.4c2.12,1.97,4.44,3.97,7.11,6.03
					C462.5,343.12,474.09,351.46,482.55,357.55z"/>
				<path class="st17" d="M461.73,416.64c-1.48-0.81-23.92-2.67-27.45-1.9c-3.54,0.77-25.61,9.82-25.62,9.82l1.9-8.87l29.52-90.4
					c0.14,0.13,0.29,0.25,0.43,0.39c5.62,20.65,22.97,83.6,23.73,87.24C465.13,417.18,463.21,417.45,461.73,416.64z"/>
				<linearGradient id="SVGID_11_" gradientUnits="userSpaceOnUse" x1="441.0116" y1="400.8985" x2="441.0116" y2="308.3777">
					<stop  offset="0" style="stop-color:#799CC7"/>
					<stop  offset="1" style="stop-color:#567CAB"/>
				</linearGradient>
				<path class="st20" d="M421.19,295.88c0,0-0.07,12.6,8.47,22.06l-19.21,95.85l-1.79,10.77c0,0,22.71-21.24,26.81-22.67
					c4.11-1.42,11.8-0.89,19.16,0.89c7.35,1.78,13.85,3.48,15.56,4.01c1.71,0.54,3.93-0.09,2.91-4.19
					c-1.03-4.1-28.56-85.65-29.5-88.94c-0.94-3.3-2.05-6.16-5.22-8.03C435.22,303.76,421.19,295.88,421.19,295.88z"/>
				<path class="st17" d="M421.51,299.58c12.58,4.75,9.04,11.8,8.15,18.36C423.99,311.66,422.13,304.02,421.51,299.58z"/>
			</g>
		</g>
		<g>
			<path class="st21" d="M374.14,262.9c22.7,0,25.49-17.79,23.36-20.11c-2.13-2.32-19.46-2.71-23.36-2.71
				c-3.9,0-21.23,0.39-23.36,2.71C348.65,245.12,351.44,262.9,374.14,262.9z"/>
			<path class="st6" d="M374.14,245.89c9.91,0,17.56-1.18,23.43-2.97c-0.03-0.03-0.04-0.09-0.07-0.12
				c-2.13-2.32-19.46-2.71-23.36-2.71c-3.9,0-21.23,0.39-23.36,2.71c-0.03,0.03-0.04,0.09-0.07,0.12
				C356.57,244.71,364.23,245.89,374.14,245.89z"/>
			<path class="st22" d="M374.14,247.82c-10.02,0-16.15,3.47-19.7,7.54c3.55,4.07,9.68,7.54,19.7,7.54c10.02,0,16.15-3.47,19.7-7.54
				C390.29,251.29,384.16,247.82,374.14,247.82z"/>
		</g>
		<g class="st23">
			<path class="st6" d="M290.03,76.35c-2.53,4.02-4.46,7.24-5.68,8.9c-4.56,6.19-13,10.47-13,10.47s7.3,5.47,13.45,5.47
				c0,0-0.02,0.07-0.06,0.2c34.85,5.32,60.75-1.99,60.75-1.99C320.42,91.72,302.37,83.31,290.03,76.35z"/>
			<path class="st6" d="M459.82,75.48c-0.28-0.43-0.62-0.9-1.01-1.38c-12.24,7.37-30.74,16.57-57.01,25.09
				c0,0,29.19,7.72,67.07-0.21C465.95,89.94,462.29,79.3,459.82,75.48z"/>
		</g>
	</g>
</g>
</svg>
