<?xml version="1.0" encoding="utf-8"?>
<!-- Generator: Adobe Illustrator 23.0.3, SVG Export Plug-In . SVG Version: 6.00 Build 0)  -->
<svg version="1.1" xmlns="http://www.w3.org/2000/svg" xmlns:xlink="http://www.w3.org/1999/xlink" x="0px" y="0px"
	 viewBox="0 0 750 500" style="enable-background:new 0 0 750 500;" xml:space="preserve">
<style type="text/css">
	.st0{fill:#8A4CA8;}
	.st1{fill:url(#SVGID_1_);}
	.st2{fill:#F09E78;}
	.st3{fill:url(#SVGID_2_);}
	.st4{fill:url(#SVGID_3_);}
	.st5{fill:url(#SVGID_4_);}
	.st6{fill:#FFFFFF;}
	.st7{fill:url(#SVGID_5_);}
	.st8{fill:#3B1510;}
	.st9{fill:#C4B2A0;}
	.st10{fill:#17222B;}
	.st11{fill:url(#SVGID_6_);}
	.st12{fill:#E08464;}
	.st13{fill:#E6C8BA;}
	.st14{fill:url(#SVGID_7_);}
	.st15{fill:#E5EBF2;}
	.st16{fill:url(#SVGID_8_);}
	.st17{fill:#B3BDC9;}
	.st18{fill:url(#SVGID_9_);}
	.st19{fill:url(#SVGID_10_);}
	.st20{fill:url(#SVGID_11_);}
	.st21{fill:#73102A;}
	.st22{fill:#EB5050;}
	.st23{opacity:0.1;}
</style>
<g id="BACKGROUND">
</g>
<g id="OBJECTS">
	<circle class="st0" cx="375.62" cy="226.49" r="126.57"/>
	<g>
		<g>
			<linearGradient id="SVGID_1_" gradientUnits="userSpaceOnUse" x1="431.2828" y1="178.8495" x2="405.67" y2="182.2704">
				<stop  offset="0" style="stop-color:#FAD4AF"/>
				<stop  offset="1" style="stop-color:#F09E78"/>
			</linearGradient>
			<path class="st1" d="M420.84,170.14c1.49-4.36,7.57-8.42,10.12-6.87c2.55,1.55,3.96,9.16,2.9,13.96
				c-1.06,4.8-5.31,13.44-6.8,15.14c-1.49,1.7-7.01,5.17-10.41,4.21L420.84,170.14z"/>
			<path class="st2" d="M422.33,167.47c-0.65,0.84-1.17,1.75-1.49,2.67l-4.18,26.44c2.19,0.62,5.26-0.61,7.57-2.01L422.33,167.47z"
				/>
			<linearGradient id="SVGID_2_" gradientUnits="userSpaceOnUse" x1="315.9029" y1="180.1608" x2="346.8695" y2="179.378">
				<stop  offset="0" style="stop-color:#FAD4AF"/>
				<stop  offset="1" style="stop-color:#F09E78"/>
			</linearGradient>
			<path class="st3" d="M331.52,170.14c-1.49-4.36-7.58-8.42-10.12-6.87c-2.55,1.55-3.96,9.16-2.9,13.96
				c1.06,4.8,5.31,13.44,6.8,15.14c1.49,1.7,7.01,5.17,10.41,4.21L331.52,170.14z"/>
			<path class="st2" d="M330.04,167.47c0.65,0.84,1.17,1.75,1.49,2.67l4.18,26.44c-2.19,0.62-5.27-0.61-7.57-2.01L330.04,167.47z"/>
		</g>
		<linearGradient id="SVGID_3_" gradientUnits="userSpaceOnUse" x1="376.1817" y1="262.8885" x2="376.1817" y2="208.6821">
			<stop  offset="0" style="stop-color:#FAD4AF"/>
			<stop  offset="1" style="stop-color:#F09E78"/>
		</linearGradient>
		<path class="st4" d="M343.86,182.84c0,0,2.55,31.02,3.12,45.94c0.57,14.92,1.7,24.82-15.15,37.82
			c-16.85,13-26.2,19.06-31.44,23.34c-5.24,4.28-7.36,6.79-9.49,11.23c-2.12,4.43-7.63,16.78-6.94,17.73
			c3.97,5.47,43.83,30.43,92.22,30.43c48.39,0,88.26-24.97,92.22-30.43c0.69-0.95-4.82-13.3-6.94-17.73s-4.25-6.94-9.49-11.23
			c-5.24-4.29-14.59-10.34-31.44-23.34c-16.85-13-15.72-22.9-15.15-37.82c0.57-14.92,3.12-45.94,3.12-45.94H343.86z"/>
		<path class="st2" d="M394.36,240.9c3.4-3.94,7.32-8.1,11.1-13.84c0.68-15.46,3.04-44.21,3.04-44.21h-64.64
			c0,0,2.36,28.75,3.04,44.2c3.79,5.75,7.7,9.91,11.11,13.85c7.89,9.13,13.4,12.05,18.17,12.05
			C380.95,252.94,386.46,250.03,394.36,240.9z"/>
		<linearGradient id="SVGID_4_" gradientUnits="userSpaceOnUse" x1="376.1819" y1="179.6454" x2="376.1819" y2="106.3983">
			<stop  offset="0" style="stop-color:#FAD4AF"/>
			<stop  offset="1" style="stop-color:#F09E78"/>
		</linearGradient>
		<path class="st5" d="M376.18,86.97c-42.97,0-49.6,30.44-49.6,47.87c0,17.43,1.49,33.98,7.45,57.61
			c5.48,21.73,16.08,29.54,23.98,36.49c7.89,6.94,13.4,9.16,18.17,9.16c4.77,0,10.28-2.22,18.17-9.16
			c7.89-6.94,18.5-14.76,23.98-36.49c5.96-23.64,7.45-40.18,7.45-57.61C425.78,117.4,419.15,86.97,376.18,86.97z"/>
		<g>
			<g>
				<path class="st6" d="M399.71,162.75c-4,0.89-8.5,4.25-10.8,8.27c1.63,2.88,5.49,5.8,12.64,5.28
					c7.15-0.52,10.54-9.59,10.76-11.56C410.5,163.64,405.46,162.35,399.71,162.75z"/>
				<linearGradient id="SVGID_5_" gradientUnits="userSpaceOnUse" x1="400.1634" y1="172.4665" x2="400.1634" y2="162.1397">
					<stop  offset="0" style="stop-color:#7D4C36"/>
					<stop  offset="1" style="stop-color:#542624"/>
				</linearGradient>
				<path class="st7" d="M399.71,162.75c-2.04,0.45-4.2,1.55-6.15,3.05c-0.23,1.01-0.28,2.09-0.05,3.17c0.8,3.86,4.43,6.31,8.1,5.48
					c3.67-0.83,6-4.63,5.2-8.49c-0.25-1.19-0.79-2.23-1.5-3.1C403.59,162.68,401.7,162.61,399.71,162.75z"/>
				<path class="st8" d="M403.05,166.82c0.35,1.67-0.66,3.33-2.26,3.69c-1.6,0.36-3.17-0.7-3.52-2.38
					c-0.35-1.68,0.66-3.33,2.26-3.69C401.12,164.08,402.7,165.14,403.05,166.82z"/>
				<path class="st9" d="M399.71,162.75c-2.04,0.45-4.2,1.55-6.15,3.05c-0.23,1.01-0.28,2.09-0.05,3.17
					c0.02,0.09,0.06,0.17,0.08,0.26c2.22-1.33,7.14-3.75,13.11-3.66c-0.28-1.03-0.76-1.93-1.39-2.7
					C403.59,162.68,401.7,162.61,399.71,162.75z"/>
				<path class="st10" d="M387.67,171.78c0,0,5.95-7.26,12.71-8.22c8.81-0.22,11.43,1.85,11.43,1.85c0,0.44-0.21,1.7-0.21,1.7
					s2.23-2.28,3.12-3.78c-4.88-1.35-9.45-1.91-15.43-1.31c-5.98,0.59-11.44,3.77-11.44,3.77s3.69-1.42,6.85-1.92
					C392.65,165.13,388.76,168.46,387.67,171.78z"/>
				<path class="st2" d="M393.01,174.86c1.41,0.61,10.7,3.31,16.16-3.29C407.89,174.28,401.96,179.58,393.01,174.86z"/>
				<path class="st6" d="M405.53,166.54c0,0.84-0.8,1.53-1.79,1.53c-0.99,0-1.79-0.69-1.79-1.53c0-0.85,0.8-1.53,1.79-1.53
					C404.73,165.01,405.53,165.7,405.53,166.54z"/>
				<path class="st2" d="M392.25,161.53c0,0,5.57-1.99,13.54-1.44c-4.14-1.22-9.77-0.52-10.27-0.48
					C395.03,159.65,393.23,160.54,392.25,161.53z"/>
				<path class="st10" d="M385.54,157.66c0,0,15.26-5.03,19.72-5.39c4.46-0.37,9.45,0,9.45,0s-4.89-1.7-9.95-1.81
					c-5.06-0.11-16.46,1.88-17.35,2.14C386.54,152.86,385.4,155.14,385.54,157.66z"/>
			</g>
			<g>
				<path class="st6" d="M352.66,162.75c4,0.89,8.5,4.25,10.8,8.27c-1.63,2.88-5.49,5.8-12.64,5.28
					c-7.15-0.52-10.54-9.59-10.76-11.56C341.86,163.64,346.9,162.35,352.66,162.75z"/>
				<linearGradient id="SVGID_6_" gradientUnits="userSpaceOnUse" x1="352.2" y1="172.4665" x2="352.2" y2="162.1397">
					<stop  offset="0" style="stop-color:#7D4C36"/>
					<stop  offset="1" style="stop-color:#542624"/>
				</linearGradient>
				<path class="st11" d="M352.66,162.75c2.04,0.45,4.2,1.55,6.14,3.05c0.23,1.01,0.28,2.09,0.05,3.17c-0.8,3.86-4.43,6.31-8.1,5.48
					c-3.67-0.83-6-4.63-5.2-8.49c0.25-1.19,0.79-2.23,1.5-3.1C348.77,162.68,350.66,162.61,352.66,162.75z"/>
				<path class="st8" d="M349.32,166.82c-0.35,1.67,0.66,3.33,2.26,3.69c1.6,0.36,3.17-0.7,3.52-2.38c0.35-1.68-0.66-3.33-2.26-3.69
					C351.24,164.08,349.67,165.14,349.32,166.82z"/>
				<path class="st9" d="M352.66,162.75c2.04,0.45,4.2,1.55,6.14,3.05c0.23,1.01,0.28,2.09,0.05,3.17
					c-0.02,0.09-0.06,0.17-0.08,0.26c-2.22-1.33-7.14-3.75-13.11-3.66c0.28-1.03,0.76-1.93,1.39-2.7
					C348.77,162.68,350.66,162.61,352.66,162.75z"/>
				<path class="st10" d="M364.7,171.78c0,0-5.95-7.26-12.71-8.22c-8.81-0.22-11.43,1.85-11.43,1.85c0,0.44,0.21,1.7,0.21,1.7
					s-2.23-2.28-3.12-3.78c4.88-1.35,9.45-1.91,15.44-1.31c5.98,0.59,11.43,3.77,11.43,3.77s-3.69-1.42-6.85-1.92
					C359.71,165.13,363.61,168.46,364.7,171.78z"/>
				<path class="st2" d="M359.36,174.86c-1.41,0.61-10.7,3.31-16.17-3.29C344.47,174.28,350.4,179.58,359.36,174.86z"/>
				<path class="st6" d="M354,168.31c0,0.84,0.8,1.53,1.79,1.53c0.99,0,1.79-0.69,1.79-1.53c0-0.85-0.8-1.53-1.79-1.53
					C354.8,166.78,354,167.46,354,168.31z"/>
				<path class="st2" d="M360.11,161.53c0,0-5.57-1.99-13.54-1.44c4.14-1.22,9.77-0.52,10.27-0.48
					C357.33,159.65,359.14,160.54,360.11,161.53z"/>
				<path class="st10" d="M366.82,157.66c0,0-15.26-5.03-19.72-5.39c-4.46-0.37-9.45,0-9.45,0s4.89-1.7,9.95-1.81
					c5.06-0.11,16.46,1.88,17.35,2.14C365.83,152.86,366.96,155.14,366.82,157.66z"/>
			</g>
		</g>
		<path class="st12" d="M376.18,201.05c2.74,0,4.94-2.59,5.13-3.88c-0.85,0.38-3.31,1.48-5.13,1.48c-1.82,0-4.28-1.1-5.13-1.48
			C371.24,198.46,373.44,201.05,376.18,201.05z"/>
		<path class="st13" d="M376.18,86.97c-42.97,0-49.6,30.44-49.6,47.87c0,12.31,0.75,24.18,3.28,38.42l4.79-15.59l6.58-4.48
			c-1.37,1.07-3.4,3.11-4.17,6.21c5.38-1.82,23.01-9.28,27.35-21.26c0,0,1.07,16.22,0.13,25.87c6.92-3.98,15.84-9.95,20.39-20.62
			c0,0,0.99,10.59,1.44,16.63c7.16-5.94,12.28-19.41,10.82-34.55c3.78,5.69,9.36,23.08,10.26,33.85c4.93-5.65,4.65-13.95,4.65-13.95
			l2.56,9.7l2.56,3.16l2.76,16.36c0,0,1.21-1.28,2.91-3.69c2.21-13.2,2.87-24.44,2.87-36.06C425.78,117.4,419.15,86.97,376.18,86.97
			z"/>
		<linearGradient id="SVGID_7_" gradientUnits="userSpaceOnUse" x1="375.0513" y1="80.5903" x2="375.0513" y2="160.4202">
			<stop  offset="0" style="stop-color:#1C242B"/>
			<stop  offset="1" style="stop-color:#343D45"/>
		</linearGradient>
		<path class="st14" d="M437.75,129.51c-0.92-2.66-5.73-19.13-8.36-23.2c-2.62-4.06-13.17-12.11-19.54-15.81
			c0,0,11.83-4.95,15.93-6.35c-11.68-4.73-17.81,0.15-20.57,3.47c0,0-9.24-9.2-12.96-10.53c-3.72-1.33-20.39-2.22-48.11,7.76
			c-11.89,6.21-20.88,23.67-23.72,27.52c-2.83,3.84-8.07,6.5-8.07,6.5s4.53,3.4,8.35,3.4c0,0-1.98,5.61-1.42,24.23
			c3.11,17.58,10.57,26.75,10.57,26.75l3.59-16.19l7.01-10.05c0,0-2.19,7.53-3.4,12.36c5.38-1.82,21.03-12.88,26.39-24.4
			c0,0-0.34,16.25-2.11,25.78c7.24-3.31,16.64-8.42,22.09-18.61c0,0,0.07,10.64,0,16.69c7.65-5.24,15.22-18.25,13.76-33.39
			c3.78,5.69,10.52,22.53,11.97,33.24c4.63-5.91,3.94-14.18,3.94-14.18l3.05,9.55l2.72,3.01l3.59,16.19c0,0,7.45-9.17,10.57-26.75
			c0.28-9.12-0.06-15.11-0.47-18.86C434.05,128.53,435.98,129.44,437.75,129.51z"/>
		<g>
			<path class="st15" d="M462.98,300.38c-2.25-4.7-4.49-7.35-9.96-11.83c-2.32-1.89-5.33-4.06-9.5-7.06
				c-5.26-3.78-12.46-8.97-21.98-16.31c-1.66-1.28-3.1-2.52-4.42-3.74c-10.14,11.5-23.86,22.97-40.95,28.07
				c-17.1-5.09-30.82-16.56-40.95-28.07c-1.31,1.22-2.76,2.46-4.42,3.74c-9.5,7.33-16.7,12.51-21.95,16.29
				c-4.18,3.01-7.2,5.19-9.52,7.08c-5.47,4.47-7.71,7.13-9.96,11.83c-8.35,17.41-7.25,18.94-6.78,19.59
				c4.47,6.16,45.42,31.14,93.58,31.14c48.17,0,89.11-24.97,93.57-31.14C470.23,319.32,471.33,317.8,462.98,300.38z"/>
			<g>
				<linearGradient id="SVGID_8_" gradientUnits="userSpaceOnUse" x1="321.4155" y1="343.5255" x2="321.4155" y2="261.7871">
					<stop  offset="0" style="stop-color:#54749C"/>
					<stop  offset="1" style="stop-color:#2B5385"/>
				</linearGradient>
				<path class="st16" d="M308.86,281.47c-4.18,3.01-7.2,5.19-9.52,7.08c-5.47,4.47-7.71,7.13-9.96,11.83
					c-8.35,17.41-7.25,18.94-6.78,19.59c3.98,5.48,36.83,25.84,77.94,30.27l-6.99-32.66l-18.33-56.14
					c-1.31,1.22-2.76,2.46-4.42,3.74C321.31,272.51,314.11,277.69,308.86,281.47z"/>
				<path class="st17" d="M321.78,318.16c0.92-0.5,14.85-1.66,17.05-1.18c2.2,0.48,15.9,6.1,15.91,6.1l-1.18-5.51l-18.33-56.14
					c-0.09,0.08-0.18,0.16-0.27,0.24c-3.49,12.83-14.26,51.91-14.73,54.17C319.68,318.5,320.87,318.66,321.78,318.16z"/>
				<linearGradient id="SVGID_9_" gradientUnits="userSpaceOnUse" x1="334.6523" y1="308.3876" x2="334.6523" y2="250.9359">
					<stop  offset="0" style="stop-color:#799CC7"/>
					<stop  offset="1" style="stop-color:#567CAB"/>
				</linearGradient>
				<path class="st18" d="M346.96,243.17c0,0,0.05,7.82-5.25,13.7l11.93,59.52l1.11,6.69c0,0-14.1-13.19-16.65-14.08
					c-2.55-0.88-7.33-0.55-11.9,0.56c-4.57,1.11-8.6,2.16-9.66,2.49c-1.06,0.33-2.44-0.06-1.81-2.6
					c0.64-2.55,17.74-53.18,18.32-55.23c0.58-2.05,1.27-3.82,3.24-4.99C338.25,248.07,346.96,243.17,346.96,243.17z"/>
				<path class="st17" d="M346.76,245.47c-7.81,2.95-5.61,7.32-5.06,11.4C345.22,252.97,346.38,248.23,346.76,245.47z"/>
			</g>
			<g>
				<linearGradient id="SVGID_10_" gradientUnits="userSpaceOnUse" x1="430.9451" y1="343.5255" x2="430.9451" y2="261.7871">
					<stop  offset="0" style="stop-color:#54749C"/>
					<stop  offset="1" style="stop-color:#2B5385"/>
				</linearGradient>
				<path class="st19" d="M443.5,281.47c4.18,3.01,7.2,5.19,9.52,7.08c5.47,4.47,7.71,7.13,9.96,11.83
					c8.35,17.41,7.24,18.94,6.77,19.59c-3.98,5.48-36.83,25.84-77.94,30.27l6.99-32.66l18.33-56.14c1.31,1.22,2.76,2.46,4.41,3.74
					C431.05,272.51,438.25,277.69,443.5,281.47z"/>
				<path class="st17" d="M430.58,318.16c-0.92-0.5-14.85-1.66-17.05-1.18c-2.2,0.48-15.9,6.1-15.91,6.1l1.18-5.51l18.33-56.14
					c0.09,0.08,0.18,0.16,0.27,0.24c3.49,12.83,14.27,51.91,14.74,54.17C432.68,318.5,431.49,318.66,430.58,318.16z"/>
				<linearGradient id="SVGID_11_" gradientUnits="userSpaceOnUse" x1="417.7088" y1="308.3876" x2="417.7088" y2="250.9359">
					<stop  offset="0" style="stop-color:#799CC7"/>
					<stop  offset="1" style="stop-color:#567CAB"/>
				</linearGradient>
				<path class="st20" d="M405.4,243.17c0,0-0.04,7.82,5.26,13.7l-11.93,59.52l-1.11,6.69c0,0,14.1-13.19,16.65-14.08
					c2.55-0.88,7.33-0.55,11.9,0.56c4.57,1.11,8.6,2.16,9.66,2.49c1.06,0.33,2.44-0.06,1.81-2.6c-0.64-2.55-17.74-53.18-18.32-55.23
					c-0.58-2.05-1.27-3.82-3.24-4.99C414.11,248.07,405.4,243.17,405.4,243.17z"/>
				<path class="st17" d="M405.6,245.47c7.81,2.95,5.61,7.32,5.06,11.4C407.14,252.97,405.98,248.23,405.6,245.47z"/>
			</g>
		</g>
		<g>
			<path class="st21" d="M376.18,222.7c14.09,0,15.83-11.05,14.51-12.49c-1.32-1.44-12.08-1.68-14.51-1.68s-13.18,0.24-14.5,1.68
				C360.35,211.65,362.09,222.7,376.18,222.7z"/>
			<path class="st6" d="M376.18,212.13c6.15,0,10.9-0.73,14.55-1.84c-0.02-0.02-0.03-0.06-0.04-0.08
				c-1.32-1.44-12.08-1.68-14.51-1.68s-13.18,0.24-14.5,1.68c-0.02,0.02-0.03,0.06-0.04,0.08
				C365.28,211.4,370.03,212.13,376.18,212.13z"/>
			<path class="st22" d="M376.18,213.34c-6.22,0-10.03,2.15-12.23,4.68c2.21,2.53,6.01,4.68,12.23,4.68
				c6.22,0,10.03-2.15,12.23-4.68C386.21,215.49,382.4,213.34,376.18,213.34z"/>
		</g>
		<g class="st23">
			<path class="st6" d="M323.96,106.85c-1.57,2.5-2.77,4.5-3.53,5.52c-2.83,3.84-8.07,6.5-8.07,6.5s4.53,3.4,8.35,3.4
				c0,0-0.01,0.04-0.04,0.12c21.64,3.3,37.72-1.24,37.72-1.24C342.83,116.4,331.62,111.18,323.96,106.85z"/>
			<path class="st6" d="M429.39,106.32c-0.17-0.27-0.38-0.56-0.63-0.86c-7.6,4.58-19.09,10.29-35.4,15.58c0,0,18.13,4.79,41.65-0.13
				C433.2,115.29,430.92,108.69,429.39,106.32z"/>
		</g>
	</g>
</g>
</svg>
